<svg xmlns="http://www.w3.org/2000/svg" width="1280" height="880" viewBox="0 0 1280 880" role="img" aria-labelledby="title desc">
  <title id="title">추세 추적 롱숏 전략 예시</title>
  <desc id="desc">추세 추적 지표를 기준으로 HL 지지 롱과 LH 저항 숏 전략을 가상 차트로 표현한 이미지</desc>
  <defs>
    <linearGradient id="bg" x1="0%" y1="0%" x2="100%" y2="100%">
      <stop offset="0%" stop-color="#f7fbff"/>
      <stop offset="100%" stop-color="#fff9f2"/>
    </linearGradient>
    <style>
      .title { font: 700 34px 'Pretendard','Apple SD Gothic Neo','Malgun Gothic',sans-serif; fill: #14263a; }
      .subtitle { font: 500 17px 'Pretendard','Apple SD Gothic Neo','Malgun Gothic',sans-serif; fill: #58697b; }
      .panelTitle { font: 700 24px 'Pretendard','Apple SD Gothic Neo','Malgun Gothic',sans-serif; fill: #17283b; }
      .label { font: 700 14px 'Pretendard','Apple SD Gothic Neo','Malgun Gothic',sans-serif; fill: #2e4b69; letter-spacing: 0.06em; }
      .body { font: 500 16px 'Pretendard','Apple SD Gothic Neo','Malgun Gothic',sans-serif; fill: #273a4d; }
      .small { font: 500 14px 'Pretendard','Apple SD Gothic Neo','Malgun Gothic',sans-serif; fill: #56687a; }
      .axis { font: 500 12px 'Menlo','Consolas',monospace; fill: #68798a; }
    </style>
  </defs>
  <rect width="1280" height="880" fill="#edf2f7"/>
  <rect x="24" y="24" width="1232" height="832" rx="28" fill="url(#bg)" stroke="#d6e0ea"/>
  <text x="60" y="82" class="title">추세 추적 · 실전 롱/숏 전략 예시</text>
  <text x="60" y="114" class="subtitle">핵심은 HL 지지 확인 뒤 롱, LH 저항 확인 뒤 숏입니다. 추세 구조가 깨지면 바로 시나리오를 버립니다.</text>

  <rect x="60" y="150" width="540" height="640" rx="26" fill="#ecfff3" stroke="#bfe7cf"/>
  <text x="96" y="190" class="label">LONG SETUP</text>
  <text x="96" y="226" class="panelTitle">HL 지지 확인 뒤 롱 매수</text>
  <rect x="96" y="250" width="468" height="304" rx="20" fill="#ffffff" stroke="#d7e3ed"/>
  <line x1="126" y1="286" x2="534" y2="286" stroke="#edf2f6"/>
  <line x1="126" y1="336" x2="534" y2="336" stroke="#edf2f6"/>
  <line x1="126" y1="386" x2="534" y2="386" stroke="#edf2f6"/>
  <line x1="126" y1="436" x2="534" y2="436" stroke="#edf2f6"/>
  <line x1="126" y1="486" x2="534" y2="486" stroke="#edf2f6"/>
  <text x="544" y="290" class="axis">112</text>
  <text x="544" y="340" class="axis">110</text>
  <text x="544" y="390" class="axis">108</text>
  <text x="544" y="440" class="axis">106</text>
  <text x="544" y="490" class="axis">104</text>
  <rect x="286" y="430" width="152" height="30" rx="15" fill="#dff2ff" stroke="#98c9f5"/>
  <text x="308" y="450" class="small">HL 지지 구간</text>
  <line x1="126" y1="500" x2="534" y2="500" stroke="#d94d5d" stroke-width="2.5" stroke-dasharray="8 8"/>
  <polyline points="132,478 176,452 220,432 264,414 308,428 352,398 396,376 440,346 484,324 528,302" fill="none" stroke="#f2c94c" stroke-width="6" stroke-linecap="round" stroke-linejoin="round"/>
  <line x1="136" y1="466" x2="528" y2="466" stroke="#56ba86" stroke-width="4" opacity="0.9"/>
  <line x1="136" y1="424" x2="528" y2="424" stroke="#2d7fbd" stroke-width="4" opacity="0.85"/>
  <line x1="136" y1="386" x2="528" y2="386" stroke="#1d4934" stroke-width="4" opacity="0.9"/>
  <line x1="150" y1="494" x2="150" y2="442" stroke="#20a36c" stroke-width="6" stroke-linecap="round"/>
  <rect x="134" y="458" width="32" height="28" rx="6" fill="#20a36c"/>
  <line x1="198" y1="470" x2="198" y2="420" stroke="#20a36c" stroke-width="6" stroke-linecap="round"/>
  <rect x="182" y="434" width="32" height="28" rx="6" fill="#20a36c"/>
  <line x1="246" y1="448" x2="246" y2="400" stroke="#20a36c" stroke-width="6" stroke-linecap="round"/>
  <rect x="230" y="414" width="32" height="26" rx="6" fill="#20a36c"/>
  <line x1="294" y1="438" x2="294" y2="390" stroke="#df5c6c" stroke-width="6" stroke-linecap="round"/>
  <rect x="278" y="408" width="32" height="20" rx="6" fill="#df5c6c"/>
  <line x1="342" y1="452" x2="342" y2="408" stroke="#df5c6c" stroke-width="6" stroke-linecap="round"/>
  <rect x="326" y="424" width="32" height="20" rx="6" fill="#df5c6c"/>
  <line x1="390" y1="438" x2="390" y2="372" stroke="#20a36c" stroke-width="6" stroke-linecap="round"/>
  <rect x="374" y="392" width="32" height="36" rx="6" fill="#20a36c"/>
  <line x1="438" y1="406" x2="438" y2="344" stroke="#20a36c" stroke-width="6" stroke-linecap="round"/>
  <rect x="422" y="360" width="32" height="38" rx="6" fill="#20a36c"/>
  <line x1="486" y1="374" x2="486" y2="310" stroke="#20a36c" stroke-width="6" stroke-linecap="round"/>
  <rect x="470" y="326" width="32" height="40" rx="6" fill="#20a36c"/>
  <text x="288" y="420" class="small">HL</text>
  <text x="432" y="318" class="small">HH</text>
  <circle cx="390" cy="392" r="18" fill="#16a34a"/>
  <text x="384" y="399" class="body" fill="#ffffff">1</text>
  <rect x="362" y="562" width="186" height="34" rx="17" fill="#ecfff3" stroke="#bfe7cf"/>
  <text x="382" y="584" class="small">롱 매수: HL 회복 봉 마감</text>
  <circle cx="486" cy="326" r="18" fill="#f59e0b"/>
  <text x="480" y="333" class="body" fill="#ffffff">2</text>
  <rect x="352" y="606" width="196" height="34" rx="17" fill="#fff7df" stroke="#efd07a"/>
  <text x="372" y="628" class="small">롱 매도: HH / 저항 재도전</text>
  <text x="96" y="606" class="body">롱 전략</text>
  <text x="96" y="634" class="small">1. `HH/HL + 강세 정렬` 먼저 확인</text>
  <text x="96" y="656" class="small">2. HL 지지 확인 봉에서 롱 매수</text>
  <text x="96" y="678" class="small">3. HH 또는 상단 저항에서 롱 매도</text>
  <text x="96" y="700" class="small">4. HL 아래 재이탈이면 무효화</text>

  <rect x="680" y="150" width="540" height="640" rx="26" fill="#fff0f2" stroke="#efc3c9"/>
  <text x="716" y="190" class="label">SHORT SETUP</text>
  <text x="716" y="226" class="panelTitle">LH 저항 확인 뒤 숏 매도</text>
  <rect x="716" y="250" width="468" height="304" rx="20" fill="#ffffff" stroke="#d7e3ed"/>
  <line x1="746" y1="286" x2="1154" y2="286" stroke="#edf2f6"/>
  <line x1="746" y1="336" x2="1154" y2="336" stroke="#edf2f6"/>
  <line x1="746" y1="386" x2="1154" y2="386" stroke="#edf2f6"/>
  <line x1="746" y1="436" x2="1154" y2="436" stroke="#edf2f6"/>
  <line x1="746" y1="486" x2="1154" y2="486" stroke="#edf2f6"/>
  <text x="1164" y="290" class="axis">121</text>
  <text x="1164" y="340" class="axis">119</text>
  <text x="1164" y="390" class="axis">117</text>
  <text x="1164" y="440" class="axis">115</text>
  <text x="1164" y="490" class="axis">113</text>
  <rect x="928" y="330" width="152" height="30" rx="15" fill="#ffe4e6" stroke="#f1aab3"/>
  <text x="950" y="350" class="small">LH 저항 구간</text>
  <line x1="746" y1="280" x2="1154" y2="280" stroke="#d94d5d" stroke-width="2.5" stroke-dasharray="8 8"/>
  <polyline points="752,292 796,314 840,336 884,356 928,344 972,374 1016,406 1060,438 1104,466 1148,492" fill="none" stroke="#f2c94c" stroke-width="6" stroke-linecap="round" stroke-linejoin="round"/>
  <line x1="756" y1="328" x2="1148" y2="328" stroke="#8f3144" stroke-width="4" opacity="0.9"/>
  <line x1="756" y1="366" x2="1148" y2="366" stroke="#c67985" stroke-width="4" opacity="0.85"/>
  <line x1="756" y1="404" x2="1148" y2="404" stroke="#b18be4" stroke-width="4" opacity="0.9"/>
  <line x1="770" y1="288" x2="770" y2="344" stroke="#df5c6c" stroke-width="6" stroke-linecap="round"/>
  <rect x="754" y="300" width="32" height="32" rx="6" fill="#df5c6c"/>
  <line x1="818" y1="310" x2="818" y2="364" stroke="#df5c6c" stroke-width="6" stroke-linecap="round"/>
  <rect x="802" y="324" width="32" height="28" rx="6" fill="#df5c6c"/>
  <line x1="866" y1="330" x2="866" y2="386" stroke="#df5c6c" stroke-width="6" stroke-linecap="round"/>
  <rect x="850" y="344" width="32" height="30" rx="6" fill="#df5c6c"/>
  <line x1="914" y1="366" x2="914" y2="320" stroke="#20a36c" stroke-width="6" stroke-linecap="round"/>
  <rect x="898" y="334" width="32" height="22" rx="6" fill="#20a36c"/>
  <line x1="962" y1="320" x2="962" y2="388" stroke="#df5c6c" stroke-width="6" stroke-linecap="round"/>
  <rect x="946" y="338" width="32" height="36" rx="6" fill="#df5c6c"/>
  <line x1="1010" y1="360" x2="1010" y2="426" stroke="#df5c6c" stroke-width="6" stroke-linecap="round"/>
  <rect x="994" y="378" width="32" height="36" rx="6" fill="#df5c6c"/>
  <line x1="1058" y1="402" x2="1058" y2="462" stroke="#df5c6c" stroke-width="6" stroke-linecap="round"/>
  <rect x="1042" y="420" width="32" height="30" rx="6" fill="#df5c6c"/>
  <line x1="1106" y1="434" x2="1106" y2="506" stroke="#df5c6c" stroke-width="6" stroke-linecap="round"/>
  <rect x="1090" y="450" width="32" height="42" rx="6" fill="#df5c6c"/>
  <text x="930" y="324" class="small">LH</text>
  <text x="1092" y="510" class="small">LL</text>
  <circle cx="962" cy="374" r="18" fill="#dc2626"/>
  <text x="956" y="381" class="body" fill="#ffffff">1</text>
  <rect x="986" y="562" width="168" height="34" rx="17" fill="#fff0f0" stroke="#efb4b4"/>
  <text x="1006" y="584" class="small">숏 매도: LH 확인 봉</text>
  <circle cx="1106" cy="450" r="18" fill="#16a34a"/>
  <text x="1100" y="457" class="body" fill="#ffffff">2</text>
  <rect x="968" y="606" width="186" height="34" rx="17" fill="#ebfff3" stroke="#bfe7cf"/>
  <text x="988" y="628" class="small">숏 매수: LL / 지지 도달</text>
  <text x="716" y="606" class="body">숏 전략</text>
  <text x="716" y="634" class="small">1. `LH/LL + 약세 정렬` 먼저 확인</text>
  <text x="716" y="656" class="small">2. LH 저항 확인 봉에서 숏 매도</text>
  <text x="716" y="678" class="small">3. LL 또는 하단 지지에서 숏 매수</text>
  <text x="716" y="700" class="small">4. LH 위 재안착이면 무효화</text>
</svg>
