<svg xmlns="http://www.w3.org/2000/svg" width="1700" height="900" viewBox="0 0 1700 900" role="img" aria-labelledby="title desc">
  <title id="title">거래량 압력 추적 롱숏 전략 예시</title>
  <desc id="desc">거래량 압력 추적 지표를 기준으로 정렬과 비정상 거래량이 맞는 자리에서 진입하고 반대 압력이 나오는 자리에서 청산하는 예시</desc>
  <defs>
    <linearGradient id="bg" x1="0%" y1="0%" x2="100%" y2="100%">
      <stop offset="0%" stop-color="#f8fbff"/>
      <stop offset="100%" stop-color="#fff8f1"/>
    </linearGradient>
    <style>
      .title { font: 700 32px 'Pretendard','Apple SD Gothic Neo','Malgun Gothic',sans-serif; fill: #15263a; }
      .subtitle { font: 500 16px 'Pretendard','Apple SD Gothic Neo','Malgun Gothic',sans-serif; fill: #58697b; }
      .panelTitle { font: 700 22px 'Pretendard','Apple SD Gothic Neo','Malgun Gothic',sans-serif; fill: #17283b; }
      .label { font: 700 14px 'Pretendard','Apple SD Gothic Neo','Malgun Gothic',sans-serif; fill: #2e4b69; letter-spacing: 0.06em; }
      .body { font: 500 15px 'Pretendard','Apple SD Gothic Neo','Malgun Gothic',sans-serif; fill: #273a4d; }
      .small { font: 500 13px 'Pretendard','Apple SD Gothic Neo','Malgun Gothic',sans-serif; fill: #56687a; }
    </style>
  </defs>
  <rect width="1700" height="900" fill="#edf2f7"/>
  <rect x="24" y="24" width="1652" height="852" rx="28" fill="url(#bg)" stroke="#d6e0ea"/>
  <text x="60" y="82" class="title">거래량 압력 추적 · 실전 롱/숏 전략 예시</text>
  <text x="60" y="114" class="subtitle">가격 자리는 추세가 잡아주고, 실제 진입은 정렬과 같은 방향의 비정상 거래량이 붙을 때만 강하게 봅니다.</text>

  <rect x="60" y="150" width="540" height="660" rx="26" fill="#ecfff3" stroke="#bfe7cf"/>
  <text x="96" y="190" class="label">LONG SETUP</text>
  <text x="96" y="226" class="panelTitle">녹색 배경 + 연두 비정상 매수에서 롱</text>
  <rect x="96" y="250" width="468" height="220" rx="20" fill="#ffffff" stroke="#d7e3ed"/>
  <polyline points="120,424 166,404 212,386 258,398 304,366 350,342 396,320 442,300 488,282 534,264" fill="none" stroke="#f2c94c" stroke-width="6" stroke-linecap="round" stroke-linejoin="round"/>
  <rect x="242" y="386" width="136" height="28" rx="14" fill="#dff2ff" stroke="#98c9f5"/>
  <text x="264" y="405" class="small">눌림 구간</text>
  <line x1="130" y1="432" x2="130" y2="384" stroke="#20a36c" stroke-width="6" stroke-linecap="round"/>
  <rect x="114" y="398" width="32" height="26" rx="6" fill="#20a36c"/>
  <line x1="178" y1="410" x2="178" y2="364" stroke="#20a36c" stroke-width="6" stroke-linecap="round"/>
  <rect x="162" y="378" width="32" height="24" rx="6" fill="#20a36c"/>
  <line x1="226" y1="396" x2="226" y2="350" stroke="#df5c6c" stroke-width="6" stroke-linecap="round"/>
  <rect x="210" y="366" width="32" height="20" rx="6" fill="#df5c6c"/>
  <line x1="274" y1="416" x2="274" y2="356" stroke="#df5c6c" stroke-width="6" stroke-linecap="round"/>
  <rect x="258" y="382" width="32" height="24" rx="6" fill="#df5c6c"/>
  <line x1="322" y1="384" x2="322" y2="324" stroke="#20a36c" stroke-width="6" stroke-linecap="round"/>
  <rect x="306" y="340" width="32" height="34" rx="6" fill="#20a36c"/>
  <line x1="370" y1="360" x2="370" y2="300" stroke="#20a36c" stroke-width="6" stroke-linecap="round"/>
  <rect x="354" y="316" width="32" height="34" rx="6" fill="#20a36c"/>
  <line x1="418" y1="340" x2="418" y2="282" stroke="#20a36c" stroke-width="6" stroke-linecap="round"/>
  <rect x="402" y="296" width="32" height="34" rx="6" fill="#20a36c"/>

  <rect x="96" y="490" width="468" height="126" rx="18" fill="#f5fffa" stroke="#cbe8d6"/>
  <rect x="116" y="508" width="18" height="74" rx="6" fill="#d2d6db"/>
  <rect x="148" y="520" width="18" height="62" rx="6" fill="#c2c7ce"/>
  <rect x="180" y="536" width="18" height="46" rx="6" fill="#c2c7ce"/>
  <rect x="212" y="548" width="18" height="34" rx="6" fill="#c2c7ce"/>
  <rect x="244" y="498" width="18" height="84" rx="6" fill="#7de3a4"/>
  <rect x="276" y="520" width="18" height="62" rx="6" fill="#d2d6db"/>
  <rect x="308" y="534" width="18" height="48" rx="6" fill="#d2d6db"/>
  <rect x="340" y="548" width="18" height="34" rx="6" fill="#f3727f"/>
  <rect x="372" y="534" width="18" height="48" rx="6" fill="#d2d6db"/>
  <rect x="404" y="520" width="18" height="62" rx="6" fill="#d2d6db"/>
  <text x="96" y="642" class="body">롱 전략</text>
  <text x="96" y="670" class="small">1. 가격 눌림 뒤 `녹색 배경` 유지 확인</text>
  <text x="96" y="692" class="small">2. `연두 비정상 매수` 막대에서 롱 매수</text>
  <text x="96" y="714" class="small">3. 목표 구간에서 `빨강 비정상 매도` 나오면 롱 매도</text>
  <circle cx="253" cy="498" r="18" fill="#16a34a"/>
  <text x="247" y="505" class="body" fill="#ffffff">1</text>
  <circle cx="349" cy="548" r="18" fill="#f59e0b"/>
  <text x="343" y="555" class="body" fill="#ffffff">2</text>

  <g transform="translate(-80 0)">
    <rect x="680" y="150" width="540" height="660" rx="26" fill="#f6efff" stroke="#dbc6f3"/>
    <text x="716" y="190" class="label">SHORT SETUP</text>
    <text x="716" y="226" class="panelTitle">보라색 배경 + 빨강 비정상 매도에서 숏</text>
    <rect x="716" y="250" width="468" height="220" rx="20" fill="#ffffff" stroke="#d7e3ed"/>
    <polyline points="740,272 786,296 832,320 878,344 924,328 970,352 1016,382 1062,408 1108,430 1154,452" fill="none" stroke="#f2c94c" stroke-width="6" stroke-linecap="round" stroke-linejoin="round"/>
    <rect x="916" y="316" width="136" height="28" rx="14" fill="#ffe4e6" stroke="#f1aab3"/>
    <text x="940" y="335" class="small">반등 구간</text>
    <line x1="750" y1="286" x2="750" y2="344" stroke="#df5c6c" stroke-width="6" stroke-linecap="round"/>
    <rect x="734" y="300" width="32" height="34" rx="6" fill="#df5c6c"/>
    <line x1="798" y1="310" x2="798" y2="364" stroke="#df5c6c" stroke-width="6" stroke-linecap="round"/>
    <rect x="782" y="324" width="32" height="30" rx="6" fill="#df5c6c"/>
    <line x1="846" y1="336" x2="846" y2="390" stroke="#df5c6c" stroke-width="6" stroke-linecap="round"/>
    <rect x="830" y="350" width="32" height="30" rx="6" fill="#df5c6c"/>
    <line x1="894" y1="356" x2="894" y2="310" stroke="#20a36c" stroke-width="6" stroke-linecap="round"/>
    <rect x="878" y="324" width="32" height="22" rx="6" fill="#20a36c"/>
    <line x1="942" y1="330" x2="942" y2="386" stroke="#df5c6c" stroke-width="6" stroke-linecap="round"/>
    <rect x="926" y="346" width="32" height="30" rx="6" fill="#df5c6c"/>
    <line x1="990" y1="358" x2="990" y2="418" stroke="#df5c6c" stroke-width="6" stroke-linecap="round"/>
    <rect x="974" y="376" width="32" height="32" rx="6" fill="#df5c6c"/>
    <line x1="1038" y1="392" x2="1038" y2="452" stroke="#df5c6c" stroke-width="6" stroke-linecap="round"/>
    <rect x="1022" y="410" width="32" height="32" rx="6" fill="#df5c6c"/>

    <rect x="716" y="490" width="468" height="126" rx="18" fill="#f7f1ff" stroke="#e1d2f5"/>
    <rect x="736" y="548" width="18" height="34" rx="6" fill="#d2d6db"/>
    <rect x="768" y="534" width="18" height="48" rx="6" fill="#d2d6db"/>
    <rect x="800" y="520" width="18" height="62" rx="6" fill="#d2d6db"/>
    <rect x="832" y="506" width="18" height="76" rx="6" fill="#ef6a79"/>
    <rect x="864" y="520" width="18" height="62" rx="6" fill="#d2d6db"/>
    <rect x="896" y="534" width="18" height="48" rx="6" fill="#d2d6db"/>
    <rect x="928" y="548" width="18" height="34" rx="6" fill="#d2d6db"/>
    <rect x="960" y="520" width="18" height="62" rx="6" fill="#7de3a4"/>
    <rect x="992" y="536" width="18" height="46" rx="6" fill="#d2d6db"/>
    <rect x="1024" y="548" width="18" height="34" rx="6" fill="#d2d6db"/>
    <text x="716" y="642" class="body">숏 전략</text>
    <text x="716" y="670" class="small">1. 반등 뒤 `보라색 배경` 유지 확인</text>
    <text x="716" y="692" class="small">2. `빨강 비정상 매도` 막대에서 숏 매도</text>
    <text x="716" y="714" class="small">3. 하단에서 `연두 비정상 매수` 나오면 숏 매수</text>
    <circle cx="841" cy="506" r="18" fill="#dc2626"/>
    <text x="835" y="513" class="body" fill="#ffffff">1</text>
    <circle cx="969" cy="520" r="18" fill="#16a34a"/>
    <text x="963" y="527" class="body" fill="#ffffff">2</text>
  </g>
</svg>
